<?xml version="1.0" encoding="UTF-8" standalone="no"?>
<!DOCTYPE svg PUBLIC "-//W3C//DTD SVG 1.1//EN" "http://www.w3.org/Graphics/SVG/1.1/DTD/svg11.dtd">
<svg xmlns="http://www.w3.org/2000/svg" version="1.1" viewBox="0.00 0.00 512.00 512.00">
  <path fill="#134E4A" d="
  M 229.25 109.49
  C 218.45 109.48 211.39 99.11 215.78 89.28
  C 218.86 82.37 225.39 81.26 232.96 81.26
  Q 300.35 81.23 367.75 81.26
  C 387.77 81.26 405.30 93.61 410.19 113.17
  Q 411.47 118.31 411.48 129.57
  Q 411.52 196.78 411.44 264.00
  C 411.41 282.98 383.31 283.46 383.29 262.44
  Q 383.21 194.87 383.26 127.29
  C 383.27 115.17 378.85 109.51 366.44 109.51
  Q 297.84 109.50 229.25 109.49
  Z" />
  <path fill="#134E4A" d="
  M 355.4213 376.4133
  A 42.63 42.63 0.0 0 1 312.8657 419.1176
  L 172.8460 419.3620
  A 42.63 42.63 0.0 0 1 130.1416 376.8064
  L 129.7987 180.3467
  A 42.63 42.63 0.0 0 1 172.3543 137.6424
  L 312.3740 137.3980
  A 42.63 42.63 0.0 0 1 355.0784 179.9536
  L 355.4213 376.4133
  Z
  M 326.8383 179.9427
  A 14.33 14.33 0.0 0 0 312.4833 165.6377
  L 172.1435 165.8826
  A 14.33 14.33 0.0 0 0 157.8386 180.2376
  L 158.1817 376.8173
  A 14.33 14.33 0.0 0 0 172.5367 391.1223
  L 312.8765 390.8774
  A 14.33 14.33 0.0 0 0 327.1814 376.5224
  L 326.8383 179.9427
  Z" />
</svg>
